<?xml version="1.0" encoding="utf-8"?>
<!-- Generator: Adobe Illustrator 23.1.0, SVG Export Plug-In . SVG Version: 6.00 Build 0)  -->
<svg version="1.1" xmlns="http://www.w3.org/2000/svg" xmlns:xlink="http://www.w3.org/1999/xlink" x="0px" y="0px"
	 viewBox="0 0 595.28 376" style="enable-background:new 0 0 595.28 376;" xml:space="preserve">
<style type="text/css">
	.st0{display:none;}
	.st1{display:inline;fill:#FFFFFF;}
	.st2{fill:#636464;}
	.st3{fill:#F79225;}
</style>
<g id="background" class="st0">
	<rect class="st1" width="595.28" height="376"/>
</g>
<g id="Layer_2">
	<path class="st2" d="M285.66,149.99h-26.09c-0.83,0-1.51-0.68-1.51-1.51v-26.09c0-0.83,0.68-1.51,1.51-1.51h26.09
		c0.83,0,1.51,0.68,1.51,1.51v26.09C287.17,149.31,286.5,149.99,285.66,149.99z"/>
	<path class="st2" d="M310.54,115.38h-14.2c-0.83,0-1.51-0.68-1.51-1.51v-14.2c0-0.83,0.68-1.51,1.51-1.51h14.2
		c0.83,0,1.51,0.68,1.51,1.51v14.2C312.05,114.7,311.37,115.38,310.54,115.38z"/>
	
		<rect x="286.15" y="107.16" transform="matrix(0.6321 0.7749 -0.7749 0.6321 199.3189 -178.0537)" class="st2" width="2.04" height="27.45"/>
	<path class="st2" d="M294.83,174.29v-14.2c0-0.83,0.68-1.51,1.51-1.51h14.2c0.83,0,1.51,0.68,1.51,1.51v14.2
		c0,0.83-0.68,1.51-1.51,1.51h-14.2C295.51,175.8,294.83,175.12,294.83,174.29z"/>
	
		<rect x="287.42" y="137.11" transform="matrix(-0.7561 0.6545 -0.6545 -0.7561 605.2474 76.0909)" class="st2" width="2.04" height="27.45"/>
	<path class="st3" d="M326.2,153.14h26.09c0.83,0,1.51,0.68,1.51,1.51v26.09c0,0.83-0.68,1.51-1.51,1.51H326.2
		c-0.83,0-1.51-0.68-1.51-1.51v-26.09C324.69,153.82,325.37,153.14,326.2,153.14z"/>
	<path class="st3" d="M301.32,187.75h14.2c0.83,0,1.51,0.68,1.51,1.51v14.2c0,0.83-0.68,1.51-1.51,1.51h-14.2
		c-0.83,0-1.51-0.68-1.51-1.51v-14.2C299.81,188.43,300.49,187.75,301.32,187.75z"/>
	
		<rect x="323.67" y="168.52" transform="matrix(-0.6321 -0.7749 0.7749 -0.6321 388.7069 549.0418)" class="st3" width="2.04" height="27.45"/>
	<path class="st3" d="M317.03,128.84v14.2c0,0.83-0.68,1.51-1.51,1.51h-14.2c-0.83,0-1.51-0.68-1.51-1.51v-14.2
		c0-0.83,0.68-1.51,1.51-1.51h14.2C316.35,127.33,317.03,128.01,317.03,128.84z"/>
	
		<rect x="322.4" y="138.57" transform="matrix(0.7561 -0.6545 0.6545 0.7561 -20.7874 248.8186)" class="st3" width="2.04" height="27.45"/>
</g>
<g id="Layer_3">
	<g>
		<path class="st3" d="M163.19,257.47v-35.69h28.26c2.65,0,4.86,0.22,6.62,0.65c1.76,0.44,3.17,1.13,4.21,2.09
			c1.05,0.96,1.79,2.22,2.22,3.79c0.44,1.57,0.65,3.47,0.65,5.7v11.2c0,2.27-0.22,4.18-0.65,5.73c-0.44,1.55-1.18,2.81-2.22,3.77
			c-1.05,0.96-2.45,1.66-4.21,2.09c-1.76,0.44-3.97,0.65-6.62,0.65H163.19z M197.2,234.39c0-1.08-0.1-2-0.29-2.75
			c-0.19-0.75-0.52-1.34-0.99-1.78c-0.47-0.44-1.09-0.75-1.86-0.94c-0.77-0.19-1.75-0.29-2.93-0.29h-19.99v22.03h19.99
			c1.08,0,2.01-0.09,2.77-0.26c0.77-0.17,1.4-0.48,1.88-0.92c0.49-0.44,0.85-1.02,1.07-1.75c0.23-0.73,0.34-1.66,0.34-2.77V234.39z"
			/>
		<path class="st3" d="M245.3,249.26h-24.7l-5.08,8.22h-9.16l20.73-32.97c0.63-1.01,1.38-1.85,2.25-2.51
			c0.87-0.66,2.13-0.99,3.77-0.99c1.6,0,2.84,0.33,3.72,0.99c0.87,0.66,1.62,1.5,2.25,2.51l20.62,32.97h-9.21L245.3,249.26z
			 M224.31,243.13h17.27l-8.64-14.08L224.31,243.13z"/>
		<path class="st3" d="M268.43,257.47v-28.84h-14.97v-6.86h37.94v6.86h-14.97v28.84H268.43z"/>
		<path class="st3" d="M324.17,249.26h-24.7l-5.08,8.22h-9.16l20.73-32.97c0.63-1.01,1.38-1.85,2.25-2.51
			c0.87-0.66,2.13-0.99,3.77-0.99c1.6,0,2.84,0.33,3.72,0.99c0.87,0.66,1.62,1.5,2.25,2.51l20.62,32.97h-9.21L324.17,249.26z
			 M303.18,243.13h17.27l-8.64-14.08L303.18,243.13z"/>
		<path class="st2" d="M342.02,221.78h30.09c2.02,0,3.75,0.14,5.18,0.42c1.43,0.28,2.59,0.74,3.48,1.39
			c0.89,0.65,1.54,1.48,1.96,2.51c0.42,1.03,0.63,2.29,0.63,3.79v2.93c0,2.09-0.37,3.59-1.1,4.5c-0.73,0.91-1.66,1.52-2.77,1.83
			c0.63,0.14,1.21,0.36,1.75,0.65c0.54,0.3,1,0.72,1.39,1.28s0.68,1.28,0.89,2.17c0.21,0.89,0.31,2,0.31,3.32v3.14
			c0,1.43-0.2,2.63-0.6,3.61c-0.4,0.98-1.05,1.77-1.94,2.38c-0.89,0.61-2.05,1.06-3.48,1.33s-3.16,0.42-5.18,0.42h-30.62V221.78z
			 M349.97,228.27v8.22h22.29c1.4,0,2.36-0.23,2.88-0.68c0.52-0.45,0.79-1.27,0.79-2.46v-2.25c0-1.08-0.32-1.82-0.97-2.22
			c-0.65-0.4-1.81-0.6-3.48-0.6H349.97z M349.97,242.25v8.74h22.24c1.5,0,2.57-0.2,3.22-0.6c0.64-0.4,0.97-1.16,0.97-2.28v-2.2
			c0-1.47-0.29-2.44-0.86-2.93c-0.58-0.49-1.6-0.73-3.06-0.73H349.97z"/>
		<path class="st2" d="M389.06,257.47v-35.69h7.96v35.69H389.06z"/>
		<path class="st2" d="M416.65,257.47c-2.62,0-4.8-0.22-6.54-0.65c-1.75-0.44-3.14-1.13-4.19-2.09c-1.05-0.96-1.79-2.22-2.22-3.77
			c-0.44-1.55-0.65-3.46-0.65-5.73v-11.2c0-2.23,0.22-4.13,0.65-5.7c0.44-1.57,1.18-2.83,2.22-3.79c1.05-0.96,2.44-1.66,4.19-2.09
			c1.74-0.44,3.92-0.65,6.54-0.65h13.55c2.65,0,4.85,0.22,6.59,0.65c1.74,0.44,3.14,1.13,4.19,2.09c1.05,0.96,1.79,2.22,2.22,3.79
			c0.44,1.57,0.65,3.47,0.65,5.7v11.2c0,2.27-0.22,4.18-0.65,5.73c-0.44,1.55-1.18,2.81-2.22,3.77c-1.05,0.96-2.44,1.66-4.19,2.09
			c-1.75,0.44-3.94,0.65-6.59,0.65H416.65z M435.9,234.39c0-1.12-0.1-2.04-0.29-2.77c-0.19-0.73-0.52-1.33-0.97-1.78
			c-0.45-0.45-1.07-0.77-1.86-0.94c-0.79-0.17-1.75-0.26-2.91-0.26h-12.87c-1.26,0-2.28,0.09-3.06,0.26
			c-0.79,0.17-1.41,0.49-1.86,0.94c-0.45,0.45-0.76,1.05-0.92,1.78c-0.16,0.73-0.24,1.66-0.24,2.77v10.52c0,1.15,0.08,2.1,0.24,2.85
			c0.16,0.75,0.46,1.34,0.92,1.78c0.45,0.44,1.07,0.73,1.86,0.89c0.79,0.16,1.81,0.24,3.06,0.24h12.87c1.15,0,2.12-0.08,2.91-0.24
			c0.79-0.16,1.4-0.45,1.86-0.89c0.45-0.44,0.78-1.03,0.97-1.78c0.19-0.75,0.29-1.7,0.29-2.85V234.39z"/>
	</g>
</g>
</svg>
