<?xml version="1.0" encoding="utf-8"?>
<!-- Generator: Adobe Illustrator 23.1.0, SVG Export Plug-In . SVG Version: 6.00 Build 0)  -->
<svg version="1.1" xmlns="http://www.w3.org/2000/svg" xmlns:xlink="http://www.w3.org/1999/xlink" x="0px" y="0px"
	 viewBox="0 0 595.28 376" style="enable-background:new 0 0 595.28 376;" xml:space="preserve">
<style type="text/css">
	.st0{fill:#FFFFFF;}
	.st1{fill:#636565;}
	.st2{fill:#1E7CC0;}
</style>
<g id="background">
	<rect class="st0" width="595.28" height="376"/>
</g>
<g id="Layer_3">
	<path class="st1" d="M331.53,191.11h-18.89c-0.67,0-1.21-0.54-1.21-1.21V171c0-0.67,0.54-1.21,1.21-1.21h18.89
		c0.67,0,1.21,0.54,1.21,1.21v18.89C332.74,190.56,332.2,191.11,331.53,191.11z"/>
	<path class="st1" d="M306.83,162.45h-9.26c-0.67,0-1.21-0.54-1.21-1.21v-9.26c0-0.67,0.54-1.21,1.21-1.21h9.26
		c0.67,0,1.21,0.54,1.21,1.21v9.26C308.04,161.9,307.5,162.45,306.83,162.45z"/>
	<path class="st2" d="M282.38,145.79H271.4c-0.67,0-1.21-0.54-1.21-1.21V133.6c0-0.67,0.54-1.21,1.21-1.21h10.98
		c0.67,0,1.21,0.54,1.21,1.21v10.98C283.6,145.24,283.05,145.79,282.38,145.79z"/>
	<path class="st2" d="M290.66,160.47h-6.83c-0.48,0-0.88-0.39-0.88-0.88v-6.83c0-0.48,0.39-0.88,0.88-0.88h6.83
		c0.48,0,0.88,0.39,0.88,0.88v6.83C291.54,160.08,291.15,160.47,290.66,160.47z"/>
	<path class="st2" d="M274.58,178.9h-6.83c-0.48,0-0.88-0.39-0.88-0.88v-6.83c0-0.48,0.39-0.88,0.88-0.88h6.83
		c0.48,0,0.88,0.39,0.88,0.88v6.83C275.46,178.51,275.06,178.9,274.58,178.9z"/>
	<path class="st2" d="M305.81,180.64h-6.83c-0.48,0-0.88-0.39-0.88-0.88v-6.83c0-0.48,0.39-0.88,0.88-0.88h6.83
		c0.48,0,0.88,0.39,0.88,0.88v6.83C306.69,180.25,306.29,180.64,305.81,180.64z"/>
	<path class="st2" d="M296.39,201.57h-9.47c-0.48,0-0.88-0.39-0.88-0.88v-9.47c0-0.48,0.39-0.88,0.88-0.88h9.47
		c0.48,0,0.88,0.39,0.88,0.88v9.47C297.26,201.17,296.87,201.57,296.39,201.57z"/>
	<path class="st2" d="M328.75,209.99h-9.47c-0.48,0-0.88-0.39-0.88-0.88v-9.47c0-0.48,0.39-0.88,0.88-0.88h9.47
		c0.48,0,0.88,0.39,0.88,0.88v9.47C329.63,209.6,329.23,209.99,328.75,209.99z"/>
	<path class="st1" d="M291.77,180.45h-9.26c-0.67,0-1.21-0.54-1.21-1.21v-9.26c0-0.67,0.54-1.21,1.21-1.21h9.26
		c0.67,0,1.21,0.54,1.21,1.21v9.26C292.98,179.9,292.44,180.45,291.77,180.45z"/>
	<path class="st1" d="M272.36,201.35h-8.59c-0.67,0-1.21-0.54-1.21-1.21v-8.59c0-0.67,0.54-1.21,1.21-1.21h8.59
		c0.67,0,1.21,0.54,1.21,1.21v8.59C273.57,200.81,273.03,201.35,272.36,201.35z"/>
	<path class="st1" d="M277.09,164.87h-8.23c-0.67,0-1.21-0.54-1.21-1.21v-8.23c0-0.67,0.54-1.21,1.21-1.21h8.23
		c0.67,0,1.21,0.54,1.21,1.21v8.23C278.3,164.33,277.75,164.87,277.09,164.87z"/>
	
		<rect x="309.01" y="156.4" transform="matrix(0.8424 -0.5388 0.5388 0.8424 -40.8596 193.2426)" class="st1" width="1.93" height="20.17"/>
	
		<rect x="280.08" y="158.06" transform="matrix(0.6455 -0.7638 0.7638 0.6455 -28.7858 274.2639)" class="st1" width="1.93" height="20.17"/>
	
		<rect x="292.85" y="156.7" transform="matrix(0.8382 0.5454 -0.5454 0.8382 138.4993 -133.2485)" class="st1" width="1.93" height="20.17"/>
	
		<rect x="276.64" y="175.22" transform="matrix(0.7071 0.7071 -0.7071 0.7071 212.3405 -142.0201)" class="st1" width="1.93" height="20.17"/>
	<g>
		<path class="st2" d="M218.81,241.72v-22.84h13.23c1.61,0,3.1,0.27,4.46,0.82c1.36,0.54,2.53,1.31,3.52,2.29
			c0.98,0.98,1.75,2.16,2.31,3.53c0.55,1.37,0.83,2.89,0.83,4.54c0,1.65-0.28,3.19-0.83,4.62c-0.56,1.42-1.32,2.65-2.31,3.69
			s-2.16,1.85-3.52,2.45c-1.36,0.6-2.85,0.9-4.46,0.9H218.81z M232.03,237.73c1.03,0,1.97-0.19,2.84-0.57
			c0.87-0.38,1.62-0.9,2.26-1.56c0.64-0.66,1.14-1.45,1.49-2.37c0.36-0.92,0.53-1.92,0.53-2.98s-0.18-2.06-0.53-2.97
			c-0.36-0.91-0.85-1.69-1.49-2.34c-0.64-0.65-1.39-1.16-2.26-1.52c-0.87-0.37-1.82-0.55-2.84-0.55h-9.27v14.86H232.03z"/>
		<path class="st2" d="M267.18,241.72l-3.42-5.75h-10.81l1.88-3.24h7l-5.09-8.54l-10.37,17.53h-4.55l13.13-21.86
			c0.23-0.4,0.5-0.71,0.82-0.94s0.69-0.35,1.13-0.35s0.81,0.12,1.12,0.35c0.3,0.23,0.57,0.54,0.8,0.94l13.16,21.86H267.18z"/>
		<path class="st2" d="M277.71,241.72v-18.85h-8.67v-3.99h21.33v3.99h-8.67v18.85H277.71z"/>
		<path class="st2" d="M312.51,241.72l-3.42-5.75h-10.81l1.88-3.24h7.01l-5.09-8.54l-10.37,17.53h-4.55l13.13-21.86
			c0.23-0.4,0.5-0.71,0.82-0.94s0.69-0.35,1.13-0.35s0.81,0.12,1.12,0.35s0.57,0.54,0.8,0.94l13.16,21.86H312.51z"/>
		<path class="st1" d="M319.74,241.72v-22.84h16.71c1.11,0,2.12,0.13,3.03,0.38c0.91,0.25,1.69,0.62,2.34,1.12
			c0.65,0.49,1.15,1.11,1.51,1.85c0.36,0.74,0.53,1.6,0.53,2.56c0,0.73-0.08,1.37-0.25,1.92c-0.17,0.54-0.4,1.01-0.69,1.4
			c-0.29,0.39-0.63,0.71-1.02,0.97s-0.79,0.46-1.21,0.58c1.05,0.33,1.91,0.94,2.58,1.82c0.67,0.88,1.01,1.99,1.01,3.33
			c0,1.05-0.17,1.99-0.52,2.84s-0.84,1.58-1.48,2.18c-0.64,0.61-1.41,1.07-2.32,1.4s-1.92,0.49-3.03,0.49H319.74z M326.62,231.79
			v-3.36h9.86c1.13,0,1.97-0.21,2.51-0.63c0.54-0.42,0.82-1.13,0.82-2.14c0-0.61-0.12-1.09-0.35-1.46
			c-0.23-0.37-0.56-0.65-0.99-0.85c-0.43-0.2-0.94-0.33-1.54-0.39c-0.6-0.06-1.26-0.09-2-0.09h-11.21v14.89h11.56
			c0.71,0,1.37-0.05,1.98-0.16c0.61-0.1,1.13-0.28,1.57-0.52s0.78-0.55,1.02-0.93s0.36-0.85,0.36-1.41c0-0.94-0.29-1.67-0.88-2.18
			c-0.59-0.51-1.45-0.77-2.58-0.77H326.62z"/>
		<path class="st1" d="M347.98,241.72v-22.84h3.99v22.84H347.98z"/>
		<path class="st1" d="M366.58,241.72c-1.59,0-3.06-0.3-4.41-0.9c-1.35-0.6-2.52-1.41-3.52-2.45c-1-1.04-1.77-2.27-2.33-3.69
			c-0.55-1.42-0.83-2.96-0.83-4.62c0-1.68,0.28-3.2,0.83-4.59c0.55-1.38,1.33-2.56,2.33-3.53c0.99-0.97,2.17-1.73,3.52-2.26
			c1.35-0.53,2.82-0.8,4.41-0.8h5.56c1.65,0,3.17,0.27,4.54,0.82c1.37,0.54,2.55,1.31,3.53,2.29c0.98,0.98,1.75,2.16,2.29,3.53
			c0.54,1.37,0.82,2.89,0.82,4.54c0,1.65-0.28,3.19-0.83,4.62c-0.55,1.42-1.33,2.65-2.32,3.69c-1,1.04-2.17,1.85-3.53,2.45
			c-1.36,0.6-2.86,0.9-4.49,0.9H366.58z M372.13,237.73c1.05,0,2.01-0.19,2.89-0.57s1.64-0.9,2.28-1.56s1.14-1.45,1.49-2.37
			c0.36-0.92,0.53-1.92,0.53-2.98s-0.18-2.06-0.53-2.97c-0.36-0.91-0.85-1.69-1.49-2.34c-0.64-0.65-1.4-1.16-2.28-1.52
			s-1.84-0.55-2.89-0.55h-5.56c-1.03,0-1.97,0.18-2.84,0.55c-0.87,0.37-1.62,0.87-2.25,1.52c-0.63,0.65-1.12,1.42-1.48,2.32
			c-0.36,0.9-0.53,1.9-0.53,2.98c0,1.07,0.18,2.06,0.53,2.98c0.36,0.92,0.85,1.71,1.48,2.37s1.38,1.18,2.25,1.56
			c0.87,0.38,1.82,0.57,2.84,0.57H372.13z"/>
	</g>
</g>
<g id="Layer_2">
</g>
</svg>
